<svg width="117" height="96" viewBox="0 0 117 96" fill="none" xmlns="http://www.w3.org/2000/svg">
<path d="M63.0701 65.9999C63.0701 66.9945 62.5886 67.9483 61.7315 68.6515C60.8744 69.3548 59.7119 69.7499 58.4998 69.7499C57.2877 69.7499 56.1252 69.3548 55.2681 68.6515C54.411 67.9483 53.9295 66.9945 53.9295 65.9999C53.9295 65.0053 54.411 64.0515 55.2681 63.3482C56.1252 62.645 57.2877 62.2499 58.4998 62.2499C59.7119 62.2499 60.8744 62.645 61.7315 63.3482C62.5886 64.0515 63.0701 65.0053 63.0701 65.9999ZM58.4998 26.9999C57.5301 26.9999 56.6001 27.316 55.9144 27.8786C55.2288 28.4412 54.8435 29.2042 54.8435 29.9999V53.9999C54.8435 54.7955 55.2288 55.5586 55.9144 56.1212C56.6001 56.6838 57.5301 56.9999 58.4998 56.9999C59.4695 56.9999 60.3995 56.6838 61.0852 56.1212C61.7708 55.5586 62.156 54.7955 62.156 53.9999V29.9999C62.156 29.2042 61.7708 28.4412 61.0852 27.8786C60.3995 27.316 59.4695 26.9999 58.4998 26.9999ZM47.297 11.4269C52.1672 4.19689 64.8324 4.19689 69.7025 11.4269L108.068 68.4239C112.78 75.4199 106.609 83.9999 96.8685 83.9999H20.1348C10.3909 83.9999 4.22276 75.4199 8.93201 68.4239L47.297 11.4269ZM63.3004 14.3279C62.8264 13.6238 62.1311 13.0368 61.2868 12.6281C60.4425 12.2193 59.4801 12.0037 58.4998 12.0037C57.5195 12.0037 56.5571 12.2193 55.7128 12.6281C54.8685 13.0368 54.1731 13.6238 53.6991 14.3279L15.3341 71.3249C14.8731 72.01 14.6378 72.7819 14.6515 73.5644C14.6652 74.3469 14.9273 75.1129 15.412 75.7869C15.8968 76.4609 16.5873 77.0195 17.4155 77.4076C18.2437 77.7956 19.181 77.9998 20.1348 77.9999H96.8685C97.8222 77.9998 98.7595 77.7956 99.5877 77.4076C100.416 77.0195 101.106 76.4609 101.591 75.7869C102.076 75.1129 102.338 74.3469 102.352 73.5644C102.365 72.7819 102.13 72.01 101.669 71.3249L63.3004 14.3279Z" fill="#F24E1E"/>
</svg>
